<svg width="14" height="14" viewBox="0 0 14 14" fill="none" xmlns="http://www.w3.org/2000/svg">
<g clip-path="url(#clip0_3776_7665)">
<path d="M0 4.8125C0 4.57088 0.195875 4.375 0.4375 4.375H2.1875C2.42912 4.375 2.625 4.57088 2.625 4.8125C2.625 5.05412 2.42912 5.25 2.1875 5.25H0.4375C0.195875 5.25 0 5.05412 0 4.8125ZM4.375 0.4375C4.375 0.195875 4.57088 0 4.8125 0C5.05412 0 5.25 0.195875 5.25 0.4375V2.1875C5.25 2.42912 5.05412 2.625 4.8125 2.625C4.57088 2.625 4.375 2.42912 4.375 2.1875V0.4375ZM5.25 9.1875C5.25 9.42912 5.05412 9.625 4.8125 9.625C4.57088 9.625 4.375 9.42912 4.375 9.1875V8.49372C4.375 8.10395 4.84625 7.90875 5.12186 8.18436C5.20391 8.26641 5.25 8.37769 5.25 8.49372V9.1875ZM9.625 4.8125C9.625 5.05412 9.42912 5.25 9.1875 5.25H8.49372C8.37769 5.25 8.26641 5.20391 8.18436 5.12186C7.90875 4.84625 8.10395 4.375 8.49372 4.375H9.1875C9.42912 4.375 9.625 4.57088 9.625 4.8125ZM2.43031 6.57519C2.60114 6.40436 2.87811 6.40436 3.04894 6.57519C3.21977 6.74602 3.21977 7.02298 3.04894 7.19381L1.06881 9.17394C0.897984 9.34477 0.621016 9.34477 0.450187 9.17394C0.279359 9.00311 0.279359 8.72614 0.450188 8.55531L2.43031 6.57519ZM8.55531 0.450188C8.72614 0.279359 9.00311 0.279359 9.17394 0.450187C9.34477 0.621016 9.34477 0.897984 9.17394 1.06881L7.19381 3.04894C7.02298 3.21977 6.74602 3.21977 6.57519 3.04894C6.40436 2.87811 6.40436 2.60114 6.57519 2.43031L8.55531 0.450188ZM0.422188 0.483438C0.593016 0.312609 0.869984 0.312609 1.04081 0.483438L3.45406 2.89669C3.62489 3.06752 3.62489 3.34448 3.45406 3.51531C3.28323 3.68614 3.00627 3.68614 2.83544 3.51531L0.422188 1.10206C0.251359 0.931234 0.251359 0.654266 0.422188 0.483438ZM6.02755 4.27058C5.6432 3.89011 5.02601 3.88416 4.63439 4.25713L4.23826 4.6344C3.83286 5.02049 3.82337 5.66417 4.21723 6.06204L11.3842 13.3021C11.7677 13.6896 12.391 13.6984 12.7853 13.322L13.2559 12.8728C13.6634 12.4838 13.6693 11.8351 13.2689 11.4388L6.02755 4.27058ZM5.05162 5.05754C5.21205 4.92003 5.45193 4.93169 5.59825 5.08412L7.18303 6.73493C7.3244 6.88219 7.32202 7.11548 7.17768 7.25982C7.03122 7.40628 6.79378 7.40628 6.64732 7.25982L5.02919 5.64169C4.8651 5.4776 4.87544 5.20856 5.05162 5.05754Z" fill="white"/>
</g>
<defs>
<clipPath id="clip0_3776_7665">
<rect width="14" height="14" fill="white"/>
</clipPath>
</defs>
</svg>
